<mxfile host="app.diagrams.net" agent="Mozilla/5.0 (Windows NT 10.0; Win64; x64) AppleWebKit/537.36 (KHTML, like Gecko) Chrome/134.0.0.0 Safari/537.36" version="24.8.2">
  <diagram name="Page-1" id="vh1MvDuLYTaKDCFTo-RD">
    <mxGraphModel dx="2269" dy="1274" grid="1" gridSize="10" guides="1" tooltips="1" connect="1" arrows="1" fold="1" page="1" pageScale="1" pageWidth="827" pageHeight="1169" math="0" shadow="0">
      <root>
        <mxCell id="0" />
        <mxCell id="1" parent="0" />
        <mxCell id="xlTqd98QvPL2YncrXXJS-2" value="&lt;span style=&quot;color: rgba(0, 0, 0, 0); font-family: monospace; font-size: 0px; text-align: start; text-wrap-mode: nowrap;&quot;&gt;%3CmxGraphModel%3E%3Croot%3E%3CmxCell%20id%3D%220%22%2F%3E%3CmxCell%20id%3D%221%22%20parent%3D%220%22%2F%3E%3CmxCell%20id%3D%222%22%20value%3D%22%22%20style%3D%22rounded%3D1%3BwhiteSpace%3Dwrap%3Bhtml%3D1%3B%22%20vertex%3D%221%22%20parent%3D%221%22%3E%3CmxGeometry%20x%3D%2295%22%20y%3D%22230%22%20width%3D%22120%22%20height%3D%22220%22%20as%3D%22geometry%22%2F%3E%3C%2FmxCell%3E%3C%2Froot%3E%3C%2FmxGraphModel%3E&lt;/span&gt;" style="rounded=1;whiteSpace=wrap;html=1;" vertex="1" parent="1">
          <mxGeometry x="70" y="120" width="410" height="960" as="geometry" />
        </mxCell>
        <mxCell id="xlTqd98QvPL2YncrXXJS-8" value="" style="rounded=1;whiteSpace=wrap;html=1;" vertex="1" parent="1">
          <mxGeometry x="95" y="230" width="355" height="220" as="geometry" />
        </mxCell>
        <mxCell id="xlTqd98QvPL2YncrXXJS-14" value="" style="rounded=1;whiteSpace=wrap;html=1;" vertex="1" parent="1">
          <mxGeometry x="95" y="500" width="345" height="220" as="geometry" />
        </mxCell>
        <mxCell id="xlTqd98QvPL2YncrXXJS-16" value="" style="rounded=1;whiteSpace=wrap;html=1;" vertex="1" parent="1">
          <mxGeometry x="95" y="770" width="345" height="220" as="geometry" />
        </mxCell>
        <mxCell id="xlTqd98QvPL2YncrXXJS-20" value="&lt;span style=&quot;font-family: Arial, sans-serif; font-weight: 700; text-align: start; text-wrap-mode: nowrap;&quot;&gt;&lt;font style=&quot;font-size: 20px;&quot;&gt;Objectifs&lt;/font&gt;&lt;/span&gt;" style="text;html=1;align=center;verticalAlign=middle;whiteSpace=wrap;rounded=0;" vertex="1" parent="1">
          <mxGeometry x="162.5" y="190" width="210" height="30" as="geometry" />
        </mxCell>
        <mxCell id="xlTqd98QvPL2YncrXXJS-21" value="&lt;span style=&quot;font-family: Arial, sans-serif; font-weight: 700; text-align: start; text-wrap-mode: nowrap;&quot;&gt;&lt;font style=&quot;font-size: 18px;&quot;&gt;RÃ©sultats&lt;/font&gt;&lt;/span&gt;" style="text;html=1;align=center;verticalAlign=middle;whiteSpace=wrap;rounded=0;" vertex="1" parent="1">
          <mxGeometry x="245" y="450" width="60" height="50" as="geometry" />
        </mxCell>
        <mxCell id="xlTqd98QvPL2YncrXXJS-22" value="&lt;span style=&quot;font-family: Arial, sans-serif; font-weight: 700; text-align: start; text-wrap-mode: nowrap; font-size: 18px;&quot;&gt;KPI&lt;/span&gt;" style="text;html=1;align=center;verticalAlign=middle;whiteSpace=wrap;rounded=0;" vertex="1" parent="1">
          <mxGeometry x="237.5" y="730" width="60" height="30" as="geometry" />
        </mxCell>
      </root>
    </mxGraphModel>
  </diagram>
</mxfile>
